<?xml version="1.0" encoding="utf-8"?>
<svg xmlns="http://www.w3.org/2000/svg" viewBox="0 0 68 78">
  <path fill-rule="evenodd" d="M 43 32.875 C 43 31.839 43.8 31 44.786 31 L 61.214 31 C 62.2 31 63 31.84 63 32.875 L 63 45.625 C 63 46.66 62.2 47.5 61.214 47.5 L 44.786 47.5 C 43.799 47.5 43 46.661 43 45.625 L 43 32.875 Z M 44.429 32.875 L 44.429 34.375 C 44.429 34.582 44.589 34.75 44.786 34.75 L 46.214 34.75 C 46.411 34.75 46.571 34.582 46.571 34.375 L 46.571 32.875 C 46.571 32.668 46.411 32.5 46.214 32.5 L 44.786 32.5 C 44.589 32.5 44.429 32.668 44.429 32.875 Z M 59.786 32.5 C 59.589 32.5 59.429 32.668 59.429 32.875 L 59.429 34.375 C 59.429 34.582 59.589 34.75 59.786 34.75 L 61.214 34.75 C 61.411 34.75 61.571 34.582 61.571 34.375 L 61.571 32.875 C 61.571 32.668 61.411 32.5 61.214 32.5 L 59.786 32.5 Z M 61.571 36.625 C 61.571 36.418 61.411 36.25 61.214 36.25 L 59.786 36.25 C 59.589 36.25 59.429 36.418 59.429 36.625 L 59.429 38.125 C 59.429 38.332 59.589 38.5 59.786 38.5 L 61.214 38.5 C 61.411 38.5 61.571 38.332 61.571 38.125 L 61.571 36.625 Z M 61.571 40.375 C 61.571 40.168 61.411 40 61.214 40 L 59.786 40 C 59.589 40 59.429 40.168 59.429 40.375 L 59.429 41.875 C 59.429 42.082 59.589 42.25 59.786 42.25 L 61.214 42.25 C 61.411 42.25 61.571 42.082 61.571 41.875 L 61.571 40.375 Z M 61.571 44.125 C 61.571 43.918 61.411 43.75 61.214 43.75 L 59.786 43.75 C 59.589 43.75 59.429 43.918 59.429 44.125 L 59.429 45.625 C 59.429 45.832 59.589 46 59.786 46 L 61.214 46 C 61.411 46 61.571 45.832 61.571 45.625 L 61.571 44.125 Z M 46.214 46 C 46.411 46 46.571 45.832 46.571 45.625 L 46.571 44.125 C 46.571 43.918 46.411 43.75 46.214 43.75 L 44.786 43.75 C 44.589 43.75 44.429 43.918 44.429 44.125 L 44.429 45.625 C 44.429 45.832 44.589 46 44.786 46 L 46.214 46 Z M 44.786 42.25 L 46.214 42.25 C 46.411 42.25 46.571 42.082 46.571 41.875 L 46.571 40.375 C 46.571 40.168 46.411 40 46.214 40 L 44.786 40 C 44.589 40 44.429 40.168 44.429 40.375 L 44.429 41.875 C 44.429 42.082 44.589 42.25 44.786 42.25 Z M 44.786 38.5 L 46.214 38.5 C 46.411 38.5 46.571 38.332 46.571 38.125 L 46.571 36.625 C 46.571 36.418 46.411 36.25 46.214 36.25 L 44.786 36.25 C 44.589 36.25 44.429 36.418 44.429 36.625 L 44.429 38.125 C 44.429 38.332 44.589 38.5 44.786 38.5 Z M 48.714 38.5 C 48.164 38.5 47.821 39.125 48.095 39.625 C 48.223 39.857 48.459 40 48.714 40 L 57.286 40 C 57.835 40 58.179 39.375 57.904 38.875 C 57.776 38.643 57.541 38.5 57.286 38.5 L 48.714 38.5 Z" clip-rule="evenodd" style="stroke-width: 1;"/>
  <path d="M 52.23 54.565 C 50.624 53.541 48.755 52.997 46.846 53 C 45.71 52.999 44.584 53.19 43.512 53.567 C 43.205 53.675 43 53.963 43 54.288 L 43 68.832 C 43 69.361 43.525 69.731 44.026 69.553 C 44.931 69.236 45.885 69.074 46.846 69.075 C 48.892 69.075 50.768 69.797 52.23 71 L 52.23 54.565 Z M 53.77 71 C 55.283 69.752 57.188 69.072 59.154 69.075 C 60.145 69.075 61.092 69.245 61.974 69.554 C 62.475 69.731 63 69.361 63 68.832 L 63 54.288 C 63 53.963 62.794 53.675 62.488 53.567 C 61.416 53.19 60.29 52.999 59.154 53 C 57.245 52.997 55.376 53.541 53.77 54.565 L 53.77 71 Z" style="stroke-width: 1;"/>
  <path d="M 52 11.563 L 50.8 12.069 L 43.352 15.486 C 43.138 15.584 43 15.801 43 16.038 L 43 16.176 C 43 16.414 43.138 16.63 43.352 16.728 L 52.173 20.776 C 52.698 21.017 53.302 21.017 53.828 20.776 L 62.649 16.728 C 62.863 16.63 63 16.414 63 16.176 L 63 16.038 C 63 15.801 62.863 15.584 62.649 15.486 L 55.2 12.069 L 54 11.563" stroke="#000000" stroke-width="1.5" style="stroke-width: 1.5; fill: none;"/>
  <path d="M 63 16.108 L 63 20.26 C 63 20.498 62.862 20.715 62.646 20.813 L 53.821 24.822 C 53.299 25.059 52.701 25.059 52.18 24.822 L 43.354 20.813 C 43.139 20.715 43 20.498 43 20.26 L 43 16.108" stroke="#000000" stroke-width="1.5" style="stroke-width: 1.5; fill: none;"/>
  <path d="M 53 11.059 C 51.343 11.059 50 9.701 50 8.03 C 50 6.356 51.343 5 53 5 C 54.657 5 56 6.356 56 8.03 C 56 9.701 54.657 11.059 53 11.059 Z" stroke="#000000" stroke-width="1.5" stroke-linecap="round" stroke-linejoin="round" style="stroke-width: 1.5; fill: none;"/>
  <path d="M 52 11.059 L 52 16.108 C 52 16.665 52.448 17.118 53 17.118 C 53.553 17.118 54 16.665 54 16.108 L 54 11.059" stroke="#000000" stroke-width="1.5" style="stroke-width: 1.5; fill: none;"/>
  <path d="M 57 16.108 L 58 16.108" stroke="#000000" stroke-width="1.5" stroke-linecap="round" stroke-linejoin="round" style="stroke-width: 1.5; fill: none;"/>
  <path fill-rule="evenodd" clip-rule="evenodd" d="M 6.385 5 C 5.621 5 5 5.62 5 6.384 L 5 23.616 C 5 24.38 5.619 25 6.385 25 L 23.615 25 C 24.381 25 25 24.38 25 23.616 L 25 6.384 C 25 5.62 24.381 5 23.615 5 L 6.385 5 Z M 20.671 11.954 C 20.972 11.654 20.972 11.166 20.671 10.865 C 20.371 10.565 19.885 10.565 19.585 10.865 L 12.949 17.501 L 10.415 14.968 C 10.116 14.667 9.629 14.667 9.329 14.968 C 9.028 15.268 9.028 15.756 9.329 16.057 L 12.405 19.134 C 12.706 19.434 13.191 19.434 13.492 19.134 L 20.671 11.954 Z" style="stroke-width: 1; fill: rgb(50, 146, 4);"/>
  <path fill-rule="evenodd" clip-rule="evenodd" d="M 6.385 29 C 5.621 29 5 29.619 5 30.385 L 5 47.615 C 5 48.379 5.621 49 6.385 49 L 23.615 49 C 24.381 49 25 48.379 25 47.615 L 25 30.385 C 25 29.619 24.381 29 23.615 29 L 6.385 29 Z M 20.672 35.954 C 20.973 35.653 20.973 35.166 20.672 34.866 C 20.372 34.565 19.885 34.565 19.585 34.866 L 12.949 41.502 L 10.416 38.968 C 10.116 38.668 9.629 38.668 9.329 38.968 C 9.028 39.269 9.028 39.756 9.329 40.056 L 12.405 43.133 C 12.706 43.434 13.192 43.434 13.493 43.133 L 20.672 35.954 Z" style="stroke-width: 1; fill: rgb(50, 146, 4);"/>
  <path fill-rule="evenodd" clip-rule="evenodd" d="M 6.385 53 C 5.619 53 5 53.621 5 54.385 L 5 71.615 C 5 72.381 5.619 73 6.385 73 L 23.615 73 C 24.379 73 25 72.381 25 71.615 L 25 54.385 C 25 53.621 24.379 53 23.615 53 L 6.385 53 Z M 20.672 59.955 C 20.972 59.654 20.972 59.167 20.672 58.867 C 20.371 58.566 19.884 58.566 19.584 58.867 L 12.949 65.502 L 10.415 62.969 C 10.115 62.669 9.628 62.669 9.327 62.969 C 9.027 63.27 9.027 63.757 9.327 64.056 L 12.404 67.133 C 12.705 67.434 13.192 67.434 13.492 67.133 L 20.672 59.955 Z" style="stroke-width: 1; fill: rgb(50, 146, 4);"/>
</svg>